# xmcd CD database file
#
# Track frame offsets:
#	183
#	16790
#	29698
#	44758
#	62073
#	89775
#	106680
#	123020
#	141833
#	158620
#	172838
#	187810
#	204903
#	221475
#	240580
#	261945
#	279468
#	292903
#	312390
#	330268
#
# Disc length: 4614 seconds
#
# Revision: 2
# Processed by: cddbd v1.4PL0 Copyright (c) Steve Scherf et al.
# Submitted via: CDex 1.50
#
DISCID=12120414
DTITLE=Dorothy Moore - Misty Blue - The Best Of Dorothy Moore 
DYEAR=1993
DGENRE=Blues
TTITLE0=Misty Blue
TTITLE1=Dark end of the street
TTITLE2=Ain't that mother's  luck
TTITLE3=Funny how time slips away
TTITLE4=With pen in hand
TTITLE5=For old time's sake
TTITLE6=Lover girl
TTITLE7=If I could just find my way back to you
TTITLE8=How'd we ever get this way
TTITLE9=Rain
TTITLE10=Since I don't have you - Since I fell for You
TTITLE11=Talk to me - Every beat of my heart
TTITLE12=It's all in the game
TTITLE13=Feel the love
TTITLE14=Ain't nothing changed
TTITLE15=I'll always love you
TTITLE16=Do ya
TTITLE17='Til the end of time
TTITLE18=I betcha didn't know that
TTITLE19=What you won't do for love
EXTD=YEAR: 1993
EXTT0=
EXTT1=
EXTT2=
EXTT3=
EXTT4=
EXTT5=
EXTT6=
EXTT7=
EXTT8=
EXTT9=
EXTT10=
EXTT11=
EXTT12=
EXTT13=
EXTT14=
EXTT15=
EXTT16=
EXTT17=
EXTT18=
EXTT19=
PLAYORDER=
